<?xml version="1.0" standalone="no"?>
<!DOCTYPE svg PUBLIC "-//W3C//DTD SVG 20010904//EN"
 "http://www.w3.org/TR/2001/REC-SVG-20010904/DTD/svg10.dtd">
<svg version="1.0" xmlns="http://www.w3.org/2000/svg"
 width="1280.000000pt" height="207.000000pt" viewBox="0 0 1280.000000 207.000000"
 preserveAspectRatio="xMidYMid meet">

<g transform="translate(0.000000,207.000000) scale(0.100000,-0.100000)"
fill="#000000" stroke="none">
<path d="M2497 1879 c-146 -34 -351 -218 -516 -463 l-50 -73 -118 -5 c-221
-10 -364 -96 -365 -221 -1 -55 16 -85 57 -103 47 -19 84 -18 123 6 25 15 32
26 32 51 0 16 -4 39 -10 49 -12 22 17 63 61 85 33 18 154 33 148 19 -3 -5 -39
-79 -81 -164 -82 -166 -158 -371 -178 -485 -17 -98 -10 -206 16 -242 30 -42
99 -73 161 -73 l52 0 -11 31 c-37 108 54 504 192 837 47 114 46 112 140 92 37
-9 146 -47 158 -56 4 -2 -4 -42 -88 -439 -27 -131 -50 -243 -50 -247 0 -5 59
-7 132 -6 l132 3 38 175 c61 283 84 391 138 645 28 132 66 311 85 397 19 87
35 162 35 167 0 25 -154 39 -233 20z m-69 -171 c-5 -24 -29 -135 -53 -246 -24
-112 -46 -206 -48 -209 -3 -2 -40 7 -84 20 -43 14 -93 28 -110 32 -18 3 -33
10 -33 15 0 17 95 179 149 254 58 82 166 190 181 181 4 -3 4 -24 -2 -47z"/>
<path d="M5982 1874 c-155 -34 -310 -153 -379 -291 -29 -59 -36 -85 -40 -155
-4 -73 -2 -88 19 -128 26 -52 77 -85 145 -95 25 -4 47 -5 49 -2 2 2 -5 30 -17
63 -27 77 -22 202 10 286 29 76 99 152 174 189 l60 31 -7 -44 c-4 -23 -41
-196 -82 -383 -41 -187 -91 -412 -110 -500 -47 -217 -74 -337 -80 -357 -5 -16
4 -18 85 -18 l89 0 7 33 c4 17 40 176 80 352 41 176 84 365 95 420 26 118 36
141 44 105 3 -14 21 -90 40 -170 19 -80 55 -237 81 -350 26 -113 57 -245 69
-295 l22 -90 129 0 129 0 33 155 c176 813 263 1214 269 1238 6 22 5 22 -85 22
-86 0 -91 -1 -96 -22 -3 -13 -14 -68 -24 -123 -37 -188 -171 -840 -176 -854
-3 -8 -8 -12 -11 -9 -2 3 -31 124 -64 269 -32 145 -77 345 -100 444 -22 99
-45 201 -51 227 -10 46 -11 47 -60 57 -66 14 -169 12 -247 -5z"/>
<path d="M9514 1796 c-70 -31 -104 -135 -67 -205 25 -48 63 -73 120 -78 39 -4
55 0 82 19 55 37 76 73 76 128 0 107 -111 179 -211 136z"/>
<path d="M3696 1701 l-99 -16 -24 -105 c-12 -58 -25 -115 -28 -127 -4 -17 -13
-23 -34 -23 -30 0 -41 -14 -41 -56 0 -19 5 -24 26 -24 25 0 26 -2 21 -37 -5
-33 -62 -304 -97 -461 -11 -48 -16 -56 -70 -92 -33 -22 -63 -40 -67 -40 -4 0
-8 39 -8 88 0 48 -9 217 -19 376 l-19 288 -66 -6 c-36 -4 -98 -12 -138 -18
l-71 -10 -45 -132 c-70 -203 -154 -380 -210 -442 -26 -28 -54 -68 -62 -88 -49
-117 28 -263 161 -302 104 -30 273 -1 348 61 17 14 60 45 96 69 36 24 83 58
105 76 l40 32 7 -66 c8 -78 34 -125 86 -158 31 -19 51 -23 117 -23 70 1 88 5
147 34 37 18 75 42 84 52 25 28 34 23 23 -13 -20 -71 -24 -69 123 -66 l132 3
76 365 75 365 49 33 c35 23 59 32 80 30 26 -3 32 -9 48 -52 20 -57 30 -66 76
-66 152 -1 179 228 31 270 -48 14 -121 -9 -193 -61 -31 -22 -59 -39 -61 -37
-2 2 0 21 5 43 16 69 23 66 -122 63 l-132 -3 -7 -30 c-4 -16 -30 -142 -59
-280 -77 -373 -85 -395 -165 -449 -43 -30 -90 -33 -124 -10 -22 16 -23 22 -18
83 4 55 87 472 115 576 7 28 11 30 64 33 53 3 56 4 62 34 10 50 9 51 -44 46
-28 -3 -52 -2 -55 1 -2 4 10 70 26 146 16 77 29 141 29 143 0 6 -85 -2 -174
-17z m-702 -710 c18 -217 16 -261 -10 -313 -20 -39 -82 -68 -144 -68 -44 0
-56 5 -81 29 -19 19 -29 40 -29 59 0 26 3 29 25 24 40 -7 74 6 90 38 20 39 19
62 -5 93 l-20 25 48 103 c27 57 59 132 71 167 13 34 26 62 30 62 4 0 15 -99
25 -219z"/>
<path d="M9090 1709 c-30 -5 -75 -12 -100 -16 l-45 -8 -17 -70 c-9 -39 -21
-96 -28 -127 -11 -55 -13 -58 -41 -58 -30 0 -33 -3 -43 -52 -6 -25 -3 -28 18
-28 14 0 27 -4 30 -8 3 -5 -8 -71 -24 -148 -92 -437 -99 -460 -155 -516 -51
-52 -135 -47 -156 9 -10 27 -11 22 99 551 21 100 36 184 34 187 -3 3 -63 5
-133 5 l-127 0 -12 -52 c-6 -29 -29 -136 -50 -238 -71 -341 -80 -374 -108
-420 -50 -81 -137 -104 -164 -44 -17 37 -15 52 129 727 l6 27 -131 0 c-72 0
-133 -4 -136 -8 -5 -8 -46 -198 -101 -462 -14 -69 -33 -147 -42 -175 -43 -134
-136 -193 -200 -129 -23 23 -25 31 -20 77 5 48 68 361 118 585 13 59 18 97 12
103 -5 5 -65 8 -134 7 l-124 -3 -5 -29 c-6 -33 -17 -33 -42 0 -24 30 -102 47
-172 39 -177 -22 -337 -194 -406 -435 -31 -106 -38 -286 -16 -364 34 -117 134
-184 256 -173 76 7 133 38 201 109 l56 59 12 -44 c13 -55 73 -113 126 -123 94
-17 194 19 285 103 l58 53 5 -30 c9 -42 69 -105 115 -118 53 -16 98 -15 163 4
44 13 66 28 121 85 l67 69 11 -40 c15 -56 63 -107 113 -121 97 -26 224 15 306
100 l48 49 20 -48 c15 -34 33 -56 63 -77 38 -25 53 -28 120 -28 68 0 84 4 152
37 44 22 91 55 111 78 l36 39 19 -42 c53 -121 186 -150 339 -75 36 17 82 51
108 79 l44 47 23 -41 c46 -82 137 -127 258 -127 126 0 252 55 359 155 37 36
71 65 75 65 3 0 6 -10 6 -22 0 -13 13 -45 28 -73 51 -94 158 -140 270 -117 63
13 151 69 183 117 29 42 45 44 52 8 17 -77 89 -132 172 -133 66 0 105 28 148
109 l39 71 -26 0 c-42 0 -76 18 -87 46 -11 31 -10 38 75 443 31 145 56 272 56
282 0 18 -10 19 -124 19 -133 0 -138 -2 -150 -54 l-7 -30 -12 24 c-25 48 -62
65 -145 64 -115 -1 -179 -29 -268 -118 -39 -39 -85 -97 -103 -129 -47 -83 -91
-218 -104 -321 l-11 -88 -54 -48 c-82 -74 -143 -102 -227 -108 -123 -8 -165
33 -165 161 0 237 136 547 240 547 56 0 73 -66 44 -167 -5 -18 -1 -23 27 -31
67 -18 108 16 123 100 17 95 -41 178 -138 198 -149 31 -294 -29 -405 -168 -89
-110 -150 -276 -167 -453 -8 -83 -23 -111 -82 -146 -43 -27 -88 -29 -120 -7
-38 27 -34 53 97 669 11 49 17 93 15 97 -3 4 -63 8 -133 8 l-128 0 -16 -77
c-71 -345 -118 -555 -130 -584 -44 -107 -161 -164 -215 -106 -28 29 -28 45 3
186 29 134 90 421 100 469 7 32 7 32 66 32 49 0 59 3 59 18 0 9 3 27 7 40 6
23 4 24 -47 21 -30 -2 -55 1 -57 7 -2 5 10 71 26 147 l29 137 -37 -1 c-20 -1
-61 -5 -91 -10z m-1699 -424 c20 -34 24 -5 -43 -320 -50 -238 -64 -267 -141
-307 -47 -23 -85 -17 -118 18 -22 24 -24 34 -24 127 1 181 75 388 169 475 43
40 51 43 93 40 40 -3 50 -7 64 -33z m3678 9 c12 -15 21 -34 21 -43 0 -21 -77
-390 -96 -459 -18 -65 -72 -128 -123 -143 -31 -9 -43 -8 -70 5 -46 24 -54 54
-48 181 8 170 66 339 145 427 42 46 62 56 114 57 28 1 41 -5 57 -25z"/>
<path d="M5028 1430 c-179 -32 -328 -199 -393 -441 -50 -186 -43 -340 18 -422
87 -115 297 -140 436 -53 127 81 223 258 252 465 10 71 12 75 62 121 34 31 67
77 95 129 l43 81 -28 0 c-22 -1 -36 -12 -63 -50 -29 -41 -75 -80 -93 -80 -3 0
-8 19 -12 43 -8 50 -39 124 -63 150 -46 51 -155 75 -254 57z m145 -128 c9 -10
20 -33 23 -50 5 -26 2 -37 -20 -58 -34 -35 -37 -108 -4 -149 21 -26 21 -29 5
-99 -53 -242 -170 -372 -264 -292 -28 24 -28 24 -27 148 1 102 6 138 28 213
26 90 82 212 114 250 46 55 114 72 145 37z"/>
</g>
</svg>
