<?xml version="1.0" standalone="no"?>
<!DOCTYPE svg PUBLIC "-//W3C//DTD SVG 20010904//EN"
 "http://www.w3.org/TR/2001/REC-SVG-20010904/DTD/svg10.dtd">
<svg version="1.0" xmlns="http://www.w3.org/2000/svg"
 width="1024.000000pt" height="1024.000000pt" viewBox="0 0 1024.000000 1024.000000"
 preserveAspectRatio="xMidYMid meet">

<g transform="translate(0.000000,1024.000000) scale(0.100000,-0.100000)"
fill="#000000" stroke="none">
<path d="M0 5120 l0 -5120 5120 0 5120 0 0 5120 0 5120 -5120 0 -5120 0 0
-5120z m5164 4374 c20 -19 20 -38 2 -54 -23 -19 -61 -8 -64 18 -7 44 32 67 62
36z m396 -165 c0 -5 -7 -9 -15 -9 -15 0 -20 12 -9 23 8 8 24 -1 24 -14z m3445
-17 c0 -18 -20 -15 -23 4 -3 10 1 15 10 12 7 -3 13 -10 13 -16z m-1670 -292
c0 -22 -29 -18 -33 3 -3 14 1 18 15 15 10 -2 18 -10 18 -18z m-2147 -196 c4
-25 -22 -49 -43 -40 -15 5 -21 47 -8 60 14 14 48 1 51 -20z m-2123 -63 c3 -5
1 -12 -5 -16 -5 -3 -10 1 -10 9 0 18 6 21 15 7z m900 -1 c10 -16 -16 -43 -28
-31 -11 11 -2 41 12 41 5 0 13 -5 16 -10z m569 -63 c-13 -5 -24 -16 -25 -25 0
-14 -2 -14 -6 -2 -4 8 -15 21 -25 29 -19 13 -19 14 2 37 l22 23 28 -27 28 -27
-24 -8z m1801 32 c10 -18 32 -38 57 -49 l40 -18 -42 -23 c-23 -13 -49 -37 -57
-52 l-14 -29 -18 33 c-10 18 -35 42 -55 52 l-38 20 34 19 c19 11 43 33 53 49
11 16 21 29 22 29 1 0 10 -14 18 -31z m-1028 -51 c-3 -8 -6 -5 -6 6 -1 11 2
17 5 13 3 -3 4 -12 1 -19z m-377 -128 c0 -5 -4 -10 -10 -10 -5 0 -10 5 -10 10
0 6 5 10 10 10 6 0 10 -4 10 -10z m580 -101 c0 -11 -4 -17 -10 -14 -5 3 -10
15 -10 26 0 11 5 17 10 14 6 -3 10 -15 10 -26z m-366 -20 c3 -17 6 -134 6
-259 l0 -227 38 -7 c20 -3 65 -6 99 -6 113 0 359 -38 520 -80 116 -31 252 -77
266 -90 24 -21 -32 -13 -143 21 -241 75 -501 118 -708 119 l-73 0 2 -80 2 -80
51 0 c51 0 296 -25 351 -35 78 -15 127 -27 210 -52 50 -15 91 -28 93 -29 2 -1
-8 -12 -21 -25 -32 -32 -78 -34 -172 -10 -190 50 -581 70 -800 42 -180 -24
-476 -108 -615 -175 -197 -96 -267 -133 -350 -187 -52 -34 -97 -65 -100 -68
-3 -4 -18 -15 -34 -25 -36 -23 -234 -204 -300 -275 -28 -30 -62 -63 -74 -75
-36 -32 -181 -229 -252 -341 -110 -175 -199 -386 -246 -583 -25 -106 -37 -132
-51 -119 -17 18 59 322 124 491 94 248 284 536 490 743 74 74 76 58 -29 169
-70 74 -84 100 -48 89 15 -5 36 7 83 47 135 117 300 225 502 328 323 164 658
256 1048 286 l87 6 0 57 c0 104 12 436 15 449 8 22 22 12 29 -19z m3534 -12
c4 -20 -25 -34 -40 -19 -15 15 -1 44 19 40 10 -2 19 -11 21 -21z m-314 -15
c172 -47 306 -138 360 -246 23 -46 28 -69 29 -131 0 -69 -3 -82 -41 -158 -23
-45 -53 -95 -67 -112 -18 -21 -12 -4 22 63 40 82 47 104 51 172 4 67 1 85 -20
131 -46 99 -162 186 -310 232 -123 39 -196 47 -420 47 -172 1 -225 -3 -348
-24 -80 -14 -160 -30 -179 -36 -19 -5 -36 -8 -38 -6 -13 13 273 76 402 89 22
3 139 4 260 2 190 -2 231 -5 299 -23z m-1654 -18 c0 -8 -7 -14 -15 -14 -15 0
-21 21 -9 33 10 9 24 -2 24 -19z m-4456 0 c5 -14 4 -15 -9 -4 -17 14 -19 20
-6 20 5 0 12 -7 15 -16z m1216 -40 c0 -20 -32 -26 -49 -10 -13 14 -13 18 4 36
17 19 19 19 31 2 7 -9 14 -22 14 -28z m357 4 c-3 -8 -6 -5 -6 6 -1 11 2 17 5
13 3 -3 4 -12 1 -19z m2313 -40 c0 -16 -3 -19 -11 -11 -6 6 -8 16 -5 22 11 17
16 13 16 -11z m330 7 c0 -8 -4 -15 -10 -15 -5 0 -10 7 -10 15 0 8 5 15 10 15
6 0 10 -7 10 -15z m-1825 -48 c0 -26 -20 -25 -23 2 -3 16 1 22 10 19 7 -3 13
-12 13 -21z m-2244 -24 c13 -16 12 -17 -3 -4 -10 7 -18 15 -18 17 0 8 8 3 21
-13z m5392 -63 c220 -75 257 -279 96 -517 -59 -88 -196 -247 -318 -371 -68
-69 -118 -128 -115 -134 4 -6 2 -8 -4 -5 -5 4 -30 -9 -54 -29 -55 -47 -53 -44
-40 -44 6 0 20 10 32 22 11 12 22 19 25 16 9 -9 -406 -411 -525 -509 -36 -30
-67 -56 -70 -59 -3 -4 -66 -57 -140 -120 -74 -63 -141 -120 -148 -127 -13 -12
-176 -143 -402 -322 -52 -41 -124 -98 -160 -127 -36 -28 -124 -96 -196 -150
-72 -55 -184 -140 -250 -189 -140 -107 -380 -273 -370 -257 4 7 57 48 119 92
129 92 187 134 381 283 77 60 204 157 282 215 183 139 504 397 625 503 52 46
122 107 154 134 128 109 223 194 325 290 58 56 131 126 163 156 66 62 78 90
15 34 -171 -151 -319 -280 -368 -317 -19 -15 -82 -66 -140 -113 -58 -47 -150
-121 -205 -165 -55 -44 -138 -111 -185 -150 -47 -39 -136 -109 -198 -156 -63
-48 -142 -110 -175 -138 -34 -28 -100 -80 -147 -116 -103 -78 -111 -86 -102
-95 4 -4 2 -5 -5 -3 -6 1 -84 -53 -173 -122 -89 -69 -172 -132 -184 -140 -120
-85 -691 -535 -716 -565 -11 -13 -10 -14 4 -9 9 3 23 1 31 -6 26 -22 146 -9
188 20 53 37 244 191 392 315 190 160 297 249 320 265 42 30 -10 -17 -140
-126 -71 -59 -170 -142 -220 -184 -49 -42 -133 -110 -185 -152 -52 -42 -110
-92 -128 -111 l-34 -35 103 -1 c156 -3 240 -39 290 -125 17 -30 23 -60 27
-131 3 -63 1 -94 -7 -99 -6 -4 -45 15 -87 43 -41 28 -92 55 -113 61 -25 6
-171 9 -392 8 l-352 -3 -2 -23 c-2 -27 32 -50 130 -85 39 -14 135 -51 215 -82
80 -31 208 -81 285 -111 316 -123 374 -155 423 -230 41 -62 54 -111 54 -204 0
-148 -79 -271 -207 -321 -59 -24 -64 -24 -493 -27 -369 -3 -442 -1 -495 13
-126 32 -186 99 -195 214 -5 76 4 161 18 161 5 0 34 -22 66 -50 112 -98 93
-95 539 -98 215 -2 404 -1 421 3 17 3 43 16 58 30 22 20 26 33 26 75 0 90 29
74 -588 320 -167 66 -320 129 -340 139 -60 31 -138 98 -170 146 -16 24 -32 42
-35 39 -3 -3 -3 3 0 15 6 24 -6 27 -26 8 -11 -10 -13 -9 -8 6 4 9 2 17 -3 17
-10 0 -144 -100 -205 -153 l-40 -35 -1 -298 c-1 -203 -5 -313 -13 -343 -17
-60 -57 -117 -105 -150 -76 -51 -99 -56 -271 -56 -188 0 -231 12 -307 83 -86
81 -86 80 -89 604 l-3 454 26 45 c30 50 55 75 113 110 38 23 49 24 237 27 194
3 199 3 250 -22 62 -29 75 -40 110 -86 36 -49 50 -101 57 -203 l6 -88 32 30
c17 16 33 27 35 25 5 -4 105 71 156 118 23 20 51 60 63 87 26 60 88 112 171
142 32 12 58 25 58 28 0 4 16 15 35 25 19 10 32 23 28 29 -3 6 -1 7 4 4 6 -4
39 15 74 41 62 46 164 117 198 137 9 6 50 35 91 65 41 30 111 80 155 110 125
85 435 307 614 438 104 77 59 28 -56 -60 -44 -35 -143 -111 -220 -170 -118
-92 -251 -191 -566 -421 -109 -80 -242 -181 -255 -194 -9 -8 -10 -13 -2 -13 6
0 8 -4 5 -10 -3 -5 -1 -10 4 -10 6 0 11 8 11 18 0 10 3 13 8 6 4 -6 16 -10 27
-8 11 2 23 -2 28 -9 6 -8 7 -5 4 8 -3 16 1 21 17 23 17 1 18 -1 6 -8 -12 -8
-11 -10 7 -10 12 0 25 5 29 11 4 7 10 7 16 1 12 -12 38 8 38 28 0 6 4 9 8 6 4
-2 33 16 64 42 30 26 75 63 99 82 24 19 77 65 119 101 118 104 277 234 375
308 50 38 124 96 165 131 41 34 118 93 170 130 52 37 118 87 145 112 28 25 97
80 155 123 58 43 150 115 205 160 55 44 134 106 175 136 41 31 113 89 160 129
47 40 141 119 210 174 119 95 172 140 211 178 9 9 46 42 81 74 78 71 278 263
258 248 -8 -6 -69 -51 -135 -99 -173 -127 -260 -194 -440 -340 -175 -142 -365
-292 -399 -314 -19 -13 -19 -13 -6 1 22 22 210 181 325 274 55 45 148 124 206
175 58 52 145 128 193 169 101 86 129 111 171 149 17 15 91 76 165 137 160
129 386 334 382 346 -1 4 3 8 9 8 24 0 165 180 198 252 28 63 33 119 16 169
-20 56 -45 82 -108 111 -45 20 -68 23 -167 22 -232 0 -465 -88 -840 -314 -167
-101 -210 -131 -203 -143 4 -6 1 -7 -7 -2 -10 6 -12 4 -6 -10 5 -15 4 -16 -8
-6 -12 10 -21 6 -51 -23 -20 -20 -39 -36 -44 -36 -14 0 -41 -36 -34 -45 5 -4
0 -5 -9 -2 -10 4 -18 2 -18 -3 0 -6 -6 -9 -12 -7 -7 1 -13 -7 -13 -18 0 -11 5
-19 11 -18 7 1 10 -6 7 -17 -3 -11 -9 -17 -14 -14 -5 3 -7 9 -4 14 3 4 -2 10
-10 14 -19 7 -19 2 1 -37 11 -22 12 -28 3 -19 -8 7 -20 27 -27 45 l-12 32 3
-32 c3 -29 2 -31 -16 -18 -17 12 -22 12 -33 0 -8 -7 -14 -21 -14 -29 0 -10 -6
-13 -17 -9 -15 5 -16 3 -6 -7 9 -10 15 -10 26 -1 12 9 16 8 21 -5 5 -12 2 -15
-10 -10 -12 4 -15 2 -10 -9 5 -13 3 -13 -18 0 -30 20 -55 11 -50 -18 2 -12 2
-16 -2 -9 -3 6 -10 12 -15 12 -6 0 -7 -5 -3 -12 5 -7 2 -9 -8 -5 -10 3 -15 0
-14 -11 0 -10 -5 -16 -13 -14 -8 2 -11 -3 -8 -10 2 -7 -2 -19 -10 -27 -13 -12
-14 -11 -9 10 6 22 6 23 -5 4 -18 -30 -19 -31 -30 -15 -7 11 -8 7 -5 -14 4
-22 2 -26 -6 -18 -17 17 -28 15 -21 -5 5 -11 3 -14 -6 -8 -10 5 -11 2 -7 -13
4 -11 2 -23 -3 -27 -6 -3 -8 0 -5 8 3 8 1 18 -5 22 -6 3 -11 -1 -11 -10 0 -9
-8 -19 -18 -22 -14 -3 -18 -11 -15 -31 3 -19 2 -23 -5 -13 -7 9 -12 10 -16 2
-4 -6 -12 -9 -17 -5 -5 3 -9 2 -8 -3 1 -4 -3 -19 -9 -33 -6 -14 -11 -19 -11
-12 -1 6 -9 12 -18 12 -13 0 -14 -3 -5 -12 7 -7 12 -19 12 -27 0 -14 -1 -14
-10 -1 -9 13 -10 13 -10 0 0 -9 6 -22 13 -29 10 -10 9 -11 -5 -6 -9 4 -19 13
-22 21 -3 8 -11 14 -18 14 -9 0 -9 -3 -2 -8 15 -10 25 -42 14 -42 -5 0 -6 -7
-3 -17 4 -11 3 -14 -5 -9 -7 4 -12 14 -12 22 0 22 -28 17 -41 -8 -12 -23 -12
-23 10 -4 21 19 21 19 19 -5 -2 -15 2 -23 10 -21 6 1 12 -2 12 -8 0 -13 -17
-13 -25 0 -10 16 -45 12 -45 -5 0 -14 13 -20 34 -16 5 1 5 -4 -1 -11 -6 -7
-13 -20 -17 -28 -3 -8 -4 -4 -2 8 4 21 2 23 -21 18 -18 -5 -23 -3 -17 5 4 8 3
9 -5 5 -13 -8 -7 -20 23 -53 l20 -21 19 21 c11 12 29 33 41 47 26 31 54 50 41
29 -15 -25 -50 -73 -62 -87 -7 -7 -25 -34 -40 -60 -15 -26 -41 -67 -59 -92
-33 -48 -203 -358 -274 -500 -147 -295 -327 -429 -558 -418 -113 5 -198 43
-278 122 -80 80 -117 165 -122 279 -12 236 93 369 588 747 37 29 100 70 106
70 3 0 19 9 35 21 16 11 29 17 29 12 0 -9 -143 -147 -182 -175 -19 -15 -20
-17 -3 -11 11 4 60 41 110 82 49 42 99 84 111 95 13 10 20 25 17 35 -3 12 -2
13 4 3 7 -9 45 14 152 93 84 64 139 110 135 117 -4 7 -3 8 4 4 14 -8 64 23 57
34 -3 5 0 12 6 16 8 5 9 3 4 -6 -5 -8 -3 -11 6 -8 8 3 14 10 14 18 0 7 11 19
25 28 l25 14 -25 -21 c-14 -11 -21 -21 -17 -21 14 0 57 32 53 39 -3 4 0 13 6
21 8 12 9 11 4 -3 -4 -12 -2 -17 6 -14 7 2 11 11 10 18 -2 8 0 11 3 7 4 -4 16
-3 27 3 16 9 17 13 6 27 -12 15 -11 16 5 3 15 -12 20 -11 40 6 12 10 34 27 50
36 15 10 27 24 27 31 0 8 16 23 35 35 42 24 45 19 8 -15 -25 -23 -23 -23 17 4
25 16 60 37 78 46 19 10 30 21 26 28 -4 6 -3 8 4 4 6 -3 54 19 107 49 157 91
490 259 625 315 244 102 394 147 640 194 14 2 81 3 150 2 99 -2 139 -8 193
-26z m-5133 -186 c29 -33 -54 40 -120 105 -29 28 -19 22 25 -16 39 -34 81 -74
95 -89z m5615 103 c0 -26 -20 -25 -23 2 -3 16 1 22 10 19 7 -3 13 -12 13 -21z
m-3585 -17 c-8 -5 -31 -9 -50 -9 l-35 1 30 8 c17 4 39 8 50 9 16 1 17 -1 5 -9z
m1261 -70 c68 -22 131 -44 139 -49 36 -24 -5 -17 -125 20 -72 23 -136 43 -142
45 -15 4 -18 24 -4 24 5 0 64 -18 132 -40z m-1501 22 c0 -5 -42 -21 -92 -37
-73 -21 -274 -96 -355 -132 -7 -3 -13 1 -13 10 0 8 32 27 82 48 56 23 86 42
94 58 10 20 13 21 21 7 8 -15 14 -14 68 4 123 43 195 58 195 42z m-1650 -174
c26 -27 44 -48 41 -48 -4 0 -36 30 -71 67 -70 73 -48 58 30 -19z m1148 -10
c-4 -10 -121 -78 -134 -78 -28 0 99 87 129 89 5 1 7 -4 5 -11z m3502 -18 c0
-5 -4 -10 -10 -10 -5 0 -10 5 -10 10 0 6 5 10 10 10 6 0 10 -4 10 -10z m-3717
-83 c4 -11 3 -16 -3 -12 -11 7 -50 79 -50 92 0 10 45 -57 53 -80z m4494 58 c6
-14 8 -25 4 -25 -5 0 -13 -10 -19 -22 -8 -17 -11 -18 -11 -7 -1 9 -8 22 -16
29 -14 12 -14 15 1 31 22 25 27 24 41 -6z m-4920 -120 c7 -20 -2 -29 -21 -22
-9 4 -13 13 -10 22 8 19 23 19 31 0z m-2417 -16 c0 -5 -4 -9 -10 -9 -5 0 -10
7 -10 16 0 8 5 12 10 9 6 -3 10 -10 10 -16z m2750 12 c0 -4 -26 -25 -57 -46
-67 -44 -207 -151 -273 -208 -82 -71 -86 -59 -6 17 69 66 308 245 329 246 4 0
7 -4 7 -9z m3125 -88 c64 -42 225 -171 225 -180 0 -15 -39 8 -116 70 -50 39
-121 93 -157 119 -37 26 -67 53 -67 59 0 7 8 6 23 -5 12 -8 54 -37 92 -63z
m142 43 c-7 -18 -55 -51 -64 -43 -9 10 51 75 61 66 5 -4 6 -14 3 -23z m-992
-54 c-3 -3 -11 0 -18 7 -9 10 -8 11 6 5 10 -3 15 -9 12 -12z m-20 -52 c-3 -5
-12 -10 -18 -10 -7 0 -6 4 3 10 19 12 23 12 15 0z m698 -52 c94 -63 168 -121
223 -175 l50 -49 37 23 c67 42 41 1 -63 -102 -55 -54 -100 -103 -100 -110 0
-7 10 -19 22 -27 20 -13 21 -17 9 -32 -7 -9 -20 -16 -28 -16 -8 0 -67 45 -132
101 -65 56 -165 133 -222 171 -115 78 -128 91 -102 108 15 9 14 10 -7 5 l-25
-6 24 20 c26 23 46 28 34 9 -4 -7 5 -5 20 5 31 20 49 23 22 3 -21 -15 -31 -6
85 -76 45 -28 150 -108 170 -130 3 -3 26 -23 52 -44 l47 -38 71 63 c39 34 67
65 63 69 -4 3 -35 29 -68 56 -76 63 -121 97 -214 159 -78 52 -105 84 -56 65
14 -5 54 -29 88 -52z m-213 38 c0 -3 -4 -8 -10 -11 -5 -3 -10 -1 -10 4 0 6 5
11 10 11 6 0 10 -2 10 -4z m1000 -50 c0 -3 -4 -8 -10 -11 -5 -3 -10 -1 -10 4
0 6 5 11 10 11 6 0 10 -2 10 -4z m-1105 -25 c3 -6 -3 -9 -14 -8 -11 0 -17 5
-15 9 7 11 22 10 29 -1z m837 -44 c-23 -24 -42 -46 -42 -50 0 -4 19 -28 41
-52 60 -65 44 -63 -24 2 -32 31 -57 56 -55 57 2 1 27 23 56 50 64 58 83 53 24
-7z m-4142 -2 c0 -8 -4 -15 -10 -15 -5 0 -10 7 -10 15 0 8 5 15 10 15 6 0 10
-7 10 -15z m1937 -33 c20 -27 20 -29 3 -50 l-19 -22 -26 24 c-27 25 -27 25 -6
38 12 7 21 18 21 25 0 19 4 16 27 -15z m-2392 -32 c10 -11 16 -20 13 -20 -3 0
-13 9 -23 20 -10 11 -16 20 -13 20 3 0 13 -9 23 -20z m56 -47 c13 -16 12 -17
-3 -4 -10 7 -18 15 -18 17 0 8 8 3 21 -13z m236 -186 c4 -6 -5 -3 -19 8 -141
107 -176 135 -188 151 -8 9 33 -20 92 -65 59 -45 111 -87 115 -94z m527 94 c3
-4 -27 -40 -67 -78 -215 -208 -352 -386 -484 -628 -185 -341 -289 -732 -296
-1115 l-2 -135 360 -6 c198 -4 374 -7 390 -8 l30 -2 -25 -10 c-35 -15 -1430
-26 -1455 -12 -17 10 -17 11 6 23 16 9 88 15 216 18 l193 5 0 56 c0 145 40
465 61 486 13 13 12 -5 -6 -105 -17 -97 -40 -413 -31 -436 5 -12 26 -14 118
-12 l113 3 6 155 c23 583 218 1091 592 1540 101 121 247 270 266 270 6 0 12
-4 15 -9z m3679 -50 c56 -58 69 -81 46 -81 -15 0 -119 111 -119 128 0 23 17
12 73 -47z m1620 -2 c21 -42 53 -66 112 -84 17 -6 14 -9 -18 -20 -65 -22 -106
-64 -107 -107 0 -35 -16 -36 -24 -2 -4 14 -14 37 -23 51 -17 25 -81 63 -108
63 -28 0 -6 19 36 31 43 13 85 55 95 95 8 30 9 29 37 -27z m-6453 6 c10 -12 9
-16 -4 -21 -9 -3 -23 -3 -32 0 -13 5 -14 9 -4 21 7 8 16 15 20 15 4 0 13 -7
20 -15z m5585 -5 c0 -22 -29 -18 -33 3 -3 14 1 18 15 15 10 -2 18 -10 18 -18z
m472 4 c1 -5 -2 -16 -7 -24 -12 -20 -35 2 -26 25 6 17 27 16 33 -1z m-3770
-123 l38 -19 -30 -7 c-40 -10 -63 -31 -70 -66 l-7 -30 -21 43 c-18 34 -30 45
-62 55 -22 6 -31 12 -21 12 32 2 84 48 92 83 l7 33 18 -42 c12 -29 29 -48 56
-62z m784 56 c-10 -9 -11 -8 -5 6 3 10 9 15 12 12 3 -3 0 -11 -7 -18z m1598
-143 c-67 -73 -978 -776 -1059 -818 -22 -11 34 36 115 98 39 30 131 103 207
162 75 60 171 136 214 169 42 33 181 142 307 243 209 167 280 215 216 146z
m-5399 -59 c0 -8 -4 -15 -10 -15 -5 0 -10 7 -10 15 0 8 5 15 10 15 6 0 10 -7
10 -15z m1118 -7 c-4 -27 -23 -34 -32 -13 -8 21 1 35 20 35 10 0 14 -8 12 -22z
m5160 -37 c3 -16 -1 -22 -10 -19 -7 3 -15 15 -16 27 -3 16 1 22 10 19 7 -3 15
-15 16 -27z m-412 -48 c177 -237 343 -617 408 -933 39 -191 48 -261 55 -444
l6 -169 55 -3 c30 -2 84 0 119 3 l64 6 -6 141 c-6 122 -13 182 -42 366 l-5 35
14 -30 c20 -44 46 -220 54 -375 l7 -135 203 -6 c168 -5 206 -9 220 -22 14 -15
14 -17 -3 -23 -29 -12 -1532 3 -1552 15 -22 13 -39 12 462 20 l380 6 3 80 c11
274 -76 690 -210 1000 -49 114 -154 304 -230 418 -63 94 -75 117 -61 117 5 0
31 -30 59 -67z m-5240 -20 c-3 -8 -6 -17 -6 -19 0 -2 -4 -4 -9 -4 -11 0 -23
29 -16 40 9 15 37 -1 31 -17z m5794 4 c0 -6 12 -28 26 -48 20 -29 36 -40 75
-50 l49 -13 -46 -17 c-58 -23 -82 -44 -105 -94 -12 -27 -18 -33 -18 -20 -2 37
-38 82 -85 105 -25 12 -46 23 -46 25 0 2 21 13 46 25 34 17 51 33 66 66 20 39
38 50 38 21z m290 -57 c0 -5 -4 -10 -10 -10 -5 0 -10 5 -10 10 0 6 5 10 10 10
6 0 10 -4 10 -10z m-7382 -12 c22 -22 14 -48 -13 -48 -20 0 -25 5 -25 23 0 36
16 47 38 25z m3062 -62 c0 -22 40 -66 74 -81 20 -9 25 -14 13 -14 -35 -2 -75
-31 -86 -63 l-12 -33 -15 30 c-18 38 -50 65 -75 65 -30 0 -22 15 14 25 24 8
37 21 51 52 19 39 36 48 36 19z m3311 -107 c55 -94 103 -201 149 -329 54 -149
119 -417 99 -404 -5 3 -9 13 -9 23 0 9 -4 21 -9 27 -5 5 -23 56 -40 114 -56
188 -115 327 -230 533 -35 63 -41 80 -31 92 7 8 16 15 21 15 4 0 27 -32 50
-71z m-6111 -159 c0 -5 -5 -12 -11 -16 -14 -8 -33 11 -25 25 7 11 36 4 36 -9z
m1403 -57 c-14 -38 -35 -95 -46 -128 -24 -68 -25 -70 -32 -63 -12 12 78 258
95 258 5 0 -2 -30 -17 -67z m-580 -6 c-3 -5 -10 -4 -15 1 -6 6 -7 16 -3 22 6
9 9 9 16 -1 4 -7 5 -17 2 -22z m1544 -151 c19 -10 22 -15 11 -16 -9 0 -25 -11
-35 -23 l-17 -24 -27 26 -26 26 26 31 c23 26 27 28 33 13 4 -10 20 -25 35 -33z
m3549 -27 c-12 -18 -16 -19 -16 -7 0 9 -6 18 -12 21 -10 3 -10 8 1 21 13 15
16 15 29 2 13 -12 12 -17 -2 -37z m-176 27 c0 -3 -4 -8 -10 -11 -5 -3 -10 -1
-10 4 0 6 5 11 10 11 6 0 10 -2 10 -4z m-4477 -37 c43 -8 67 -17 67 -26 0 -16
-14 -13 -115 23 -38 13 -59 22 -45 20 14 -3 55 -10 93 -17z m5618 -25 c-18 -8
-36 -12 -39 -9 -10 10 21 25 48 24 23 -1 22 -2 -9 -15z m-6291 -78 c0 -25 -15
-37 -37 -28 -14 4 -18 34 -6 45 3 4 15 7 25 7 12 0 18 -7 18 -24z m6709 -43
c-15 -18 -34 -1 -25 22 5 14 9 15 21 5 12 -10 13 -16 4 -27z m-4109 -13 c0 -5
-4 -10 -10 -10 -5 0 -10 5 -10 10 0 6 5 10 10 10 6 0 10 -4 10 -10z m-1915
-21 c13 -13 -30 -10 -90 6 l-50 14 65 -6 c36 -3 69 -9 75 -14z m5720 12 c-17
-14 -116 -30 -112 -17 3 9 38 17 107 24 8 1 10 -1 5 -7z m-1472 -188 c8 -9 39
-23 68 -33 l52 -18 -57 -12 c-59 -12 -78 -29 -91 -82 -8 -33 -25 -37 -25 -7 0
26 -18 61 -39 74 -9 6 -36 15 -61 21 -33 9 -38 12 -19 13 14 0 41 11 60 24 27
17 38 36 54 86 l20 63 11 -57 c6 -31 18 -64 27 -72z m-3026 54 c-8 -7 -17 -18
-19 -26 -3 -9 -10 -5 -22 13 -16 26 -16 29 -1 46 16 18 17 18 37 -2 17 -17 18
-21 5 -31z m506 -45 c-13 -7 -23 -18 -23 -25 -1 -7 -6 -5 -14 5 -7 10 -23 21
-37 26 l-23 9 24 13 c14 7 28 19 33 26 5 9 14 6 35 -14 l27 -27 -22 -13z
m-1943 -22 c0 -23 -25 -27 -33 -6 -7 16 1 26 20 26 7 0 13 -9 13 -20z m7404 1
c4 -5 3 -17 0 -26 -5 -13 -8 -14 -15 -3 -5 7 -9 19 -9 26 0 14 16 16 24 3z
m-3734 -104 c0 -2 -12 -14 -27 -28 l-28 -24 24 28 c23 25 31 32 31 24z m-3944
-44 c-10 -10 -19 5 -10 18 6 11 8 11 12 0 2 -7 1 -15 -2 -18z m1389 -5 c11
-18 31 -35 44 -38 22 -5 21 -6 -12 -22 -26 -12 -37 -25 -43 -50 l-7 -33 -9 33
c-7 25 -18 37 -45 48 l-36 15 33 20 c18 11 34 29 37 40 7 26 15 24 38 -13z
m3995 22 c0 -5 -4 -10 -10 -10 -5 0 -10 5 -10 10 0 6 5 10 10 10 6 0 10 -4 10
-10z m1640 -14 c0 -3 -4 -8 -10 -11 -5 -3 -10 -1 -10 4 0 6 5 11 10 11 6 0 10
-2 10 -4z m-3185 -56 c-3 -5 -16 -15 -28 -21 -19 -9 -19 -8 3 10 28 23 34 26
25 11z m3275 -55 c0 -8 -4 -15 -10 -15 -5 0 -10 7 -10 15 0 8 5 15 10 15 6 0
10 -7 10 -15z m-4570 -70 c-7 -8 -17 -15 -23 -15 -6 0 -2 7 9 15 25 19 30 19
14 0z m-642 -68 c2 -10 -3 -17 -12 -17 -18 0 -29 16 -21 31 9 14 29 6 33 -14z
m2062 -177 c0 -5 -4 -10 -10 -10 -5 0 -10 5 -10 10 0 6 5 10 10 10 6 0 10 -4
10 -10z m780 -160 c0 -5 -2 -10 -4 -10 -3 0 -8 5 -11 10 -3 6 -1 10 4 10 6 0
11 -4 11 -10z m-5450 -96 c0 -2 -6 -4 -14 -4 -8 0 -28 -16 -44 -35 l-28 -35
-13 23 c-6 12 -25 31 -40 42 l-29 19 40 40 41 41 43 -44 c24 -24 44 -45 44
-47z m3330 2 c0 -2 -8 -10 -17 -17 -16 -13 -17 -12 -4 4 13 16 21 21 21 13z
m-1785 -162 c7 -92 3 -210 -8 -221 -3 -3 -43 12 -89 33 l-83 39 -158 0 -159 0
-24 -28 -24 -28 0 -355 c0 -386 2 -404 56 -424 40 -16 329 -12 408 5 38 8 71
13 74 11 6 -7 2 -249 -4 -255 -3 -3 -130 -6 -282 -6 -264 0 -279 1 -324 22
-104 48 -162 131 -179 254 -6 38 -9 241 -7 452 3 374 3 383 26 432 27 59 45
80 93 110 79 50 105 54 401 55 l276 0 7 -96z m3620 58 c33 -18 99 -69 148
-113 l87 -81 33 28 c17 15 74 67 126 115 l94 89 103 0 103 0 3 -27 c2 -16 1
-314 -2 -663 l-5 -635 -119 -3 c-66 -1 -123 1 -127 5 -5 5 -9 206 -10 448 0
242 -4 449 -8 459 -7 17 -11 15 -49 -20 -22 -21 -47 -43 -54 -49 -8 -5 -24
-18 -35 -29 -22 -18 -23 -18 -63 14 -22 17 -40 29 -40 25 0 -3 -6 0 -14 7 -8
7 -12 16 -9 20 2 4 -3 5 -11 2 -14 -5 -16 -48 -17 -343 -1 -185 -4 -381 -8
-436 l-6 -100 -114 -3 c-85 -2 -117 1 -123 10 -4 7 -8 228 -8 491 0 462 -1
479 -21 518 -26 52 -69 71 -152 67 l-62 -3 -5 -540 c-3 -297 -7 -541 -8 -542
-1 -2 -56 -3 -122 -3 l-120 0 -1 398 c-1 370 -1 907 0 925 1 5 126 7 279 5
l277 -3 60 -33z m1093 -597 c1 -346 0 -645 -3 -662 l-6 -33 -118 0 c-115 0
-119 1 -123 23 -7 40 -10 1285 -3 1297 4 7 48 10 128 8 l122 -3 3 -630z m982
480 c0 -130 -2 -155 -15 -155 -8 0 -43 14 -77 32 -59 30 -71 32 -188 36 -136
4 -170 -3 -195 -42 -14 -22 -16 -69 -17 -371 0 -247 3 -354 12 -375 22 -54 62
-63 244 -56 89 3 179 8 201 12 l40 6 -3 -125 -3 -125 -31 -6 c-53 -10 -414 -7
-470 5 -67 14 -99 31 -149 76 -93 84 -101 136 -97 639 3 381 3 390 26 439 28
60 45 80 97 113 73 46 104 51 373 51 l252 1 0 -155z m1235 125 c7 -12 -12 -40
-26 -40 -5 0 -9 11 -9 25 0 25 23 35 35 15z m-827 -193 c2 -12 -3 -17 -17 -17
-12 0 -21 6 -21 13 0 31 32 34 38 4z m-7238 3 c0 -24 -130 -26 -138 -2 -3 9
16 12 67 12 40 0 71 -4 71 -10z m7838 -172 c21 -21 14 -57 -12 -64 -14 -3 -30
-3 -35 1 -12 7 -15 58 -4 68 10 11 38 8 51 -5z m-8251 -160 c-3 -8 -6 -5 -6 6
-1 11 2 17 5 13 3 -3 4 -12 1 -19z m1373 -128 c0 -5 -4 -10 -10 -10 -5 0 -10
5 -10 10 0 6 5 10 10 10 6 0 10 -4 10 -10z m5728 -2 c7 -9 6 -17 -3 -25 -10
-10 -16 -9 -25 2 -12 14 -6 35 9 35 5 0 13 -6 19 -12z m-7074 -549 c-3 -5 -10
-7 -15 -3 -5 3 -7 10 -3 15 3 5 10 7 15 3 5 -3 7 -10 3 -15z m8356 -109 c0 -5
-4 -10 -10 -10 -5 0 -10 5 -10 10 0 6 5 10 10 10 6 0 10 -4 10 -10z m-7030
-14 c0 -2 -8 -10 -17 -17 -16 -13 -17 -12 -4 4 13 16 21 21 21 13z m496 -193
c201 -244 469 -480 724 -638 212 -131 547 -267 808 -328 l102 -24 6 26 c3 14
12 44 19 66 12 37 13 30 11 -85 -1 -192 46 -329 150 -435 103 -104 222 -151
365 -143 190 11 342 131 424 333 27 64 29 81 29 200 1 72 -2 146 -6 165 -7 34
-7 34 6 10 8 -14 19 -51 26 -82 12 -51 16 -57 34 -53 12 3 55 12 96 20 101 21
372 112 490 165 318 143 613 353 870 616 74 77 157 167 185 201 27 34 51 60
54 57 2 -2 -18 -37 -44 -77 -64 -94 -341 -371 -475 -474 -338 -260 -742 -451
-1105 -522 l-90 -18 -6 -75 c-8 -96 -32 -174 -78 -249 -80 -132 -214 -228
-354 -252 l-67 -11 0 -163 c0 -137 -2 -163 -15 -163 -12 0 -15 27 -17 162 l-3
161 -72 17 c-165 39 -296 140 -367 284 -36 72 -65 188 -66 261 0 31 0 31 -102
54 -127 28 -353 101 -473 151 -372 158 -775 457 -1019 757 -80 97 -146 193
-133 193 2 0 44 -48 93 -107z m3724 -17 c6 -8 25 -18 41 -21 32 -7 30 -25 -2
-25 -27 0 -69 -47 -69 -79 -1 -22 -3 -20 -15 13 -17 49 -31 62 -75 74 l-35 9
32 7 c37 9 83 57 83 89 1 15 5 10 14 -16 8 -20 19 -44 26 -51z m-2314 -101 c8
-33 4 -36 -50 -42 l-45 -6 -3 -116 -3 -116 -30 0 -30 0 -3 118 -3 117 -33 0
c-52 0 -66 9 -66 41 l0 29 130 0 130 0 6 -25z m458 11 c59 -24 73 -123 26
-174 l-21 -22 21 -39 c27 -54 26 -61 -12 -60 -28 0 -38 7 -63 46 -22 34 -38
48 -57 50 -27 4 -28 2 -28 -47 l0 -51 -32 3 -33 3 -3 153 -3 152 86 0 c51 0
99 -6 119 -14z m552 -117 c29 -69 56 -138 59 -152 7 -25 5 -27 -24 -27 -24 0
-34 7 -46 31 -16 30 -17 31 -88 27 -67 -3 -73 -5 -85 -30 -10 -21 -20 -28 -43
-28 -16 0 -29 5 -29 13 0 13 89 238 109 276 10 18 19 22 53 19 l42 -3 52 -126z
m372 -21 l-3 -153 -30 0 -30 0 -3 140 c-1 76 0 145 2 152 3 7 19 13 36 13 l31
0 -3 -152z m342 32 l0 -119 73 -3 c65 -3 72 -5 75 -25 5 -32 -22 -41 -123 -38
l-90 2 -3 152 -3 151 36 0 35 0 0 -120z m1508 101 c26 -11 55 -22 65 -25 9 -3
17 -10 17 -16 0 -21 -28 -21 -65 0 -33 19 -39 19 -47 7 -20 -38 -131 -179
-194 -248 -70 -78 -199 -199 -211 -199 -4 0 38 46 93 103 163 166 311 361 292
384 -14 18 -5 16 50 -6z m-4852 -116 c64 -91 80 -123 44 -90 -26 24 -140 193
-140 208 1 14 10 3 96 -118z m-1398 87 c4 -24 -7 -29 -25 -11 -14 14 -5 41 11
36 6 -2 12 -13 14 -25z m2406 -37 c3 -9 0 -24 -6 -35 -11 -18 -12 -18 -23 3
-8 14 -8 26 -2 35 13 16 24 15 31 -3z m-1047 -191 c8 -22 -10 -49 -32 -49 -10
0 -22 7 -28 16 -15 24 -1 49 28 49 15 0 28 -7 32 -16z m-585 -46 c-9 -9 -15
-9 -24 0 -10 10 -10 15 2 22 9 6 19 5 24 0 7 -7 6 -14 -2 -22z m3728 -158 c0
-5 -4 -10 -10 -10 -5 0 -10 5 -10 10 0 6 5 10 10 10 6 0 10 -4 10 -10z m-2652
-53 c21 -19 60 -55 87 -81 l50 -48 -47 32 c-26 18 -54 30 -62 27 -10 -4 -13
-1 -10 8 4 8 -9 27 -30 46 -33 28 -45 49 -30 49 3 0 22 -15 42 -33z m2024 -64
c70 -40 102 -132 78 -219 -13 -47 -40 -75 -180 -186 -30 -24 -56 -53 -58 -65
-3 -18 4 -21 65 -26 37 -4 89 -7 114 -7 45 0 47 -1 53 -34 13 -66 13 -66 -179
-66 l-173 0 -7 89 c-4 57 -3 96 4 109 6 11 48 44 93 74 146 96 185 160 137
222 -15 20 -29 26 -58 26 -40 0 -81 -23 -81 -45 0 -21 -36 -37 -65 -29 -21 5
-25 12 -25 43 0 50 33 98 83 122 53 25 150 21 199 -8z m-2377 -43 c0 -8 -8
-16 -17 -18 -13 -2 -18 3 -18 18 0 15 5 20 18 18 9 -2 17 -10 17 -18z m4599
-67 c-16 -25 -31 -27 -43 -4 -9 15 -7 23 5 36 15 15 18 15 33 1 12 -12 13 -21
5 -33z m-4484 -37 c0 -2 -7 -9 -15 -16 -13 -11 -14 -10 -9 4 5 14 24 23 24 12z
m4070 -26 c0 -11 -4 -20 -10 -20 -5 0 -10 9 -10 20 0 11 5 20 10 20 6 0 10 -9
10 -20z m842 -123 c14 -17 45 -36 77 -47 l53 -18 -49 -16 c-58 -19 -97 -56
-116 -110 l-13 -39 -18 46 c-21 55 -62 92 -119 108 l-42 11 49 18 c64 25 81
41 108 107 l22 54 13 -43 c7 -24 23 -56 35 -71z m-3859 -146 c37 -14 67 -30
67 -35 0 -12 -42 0 -138 39 l-82 33 -11 -44 c-6 -24 -16 -44 -21 -44 -6 0 -8
11 -3 28 3 15 9 41 12 59 l5 32 52 -21 c28 -11 81 -32 119 -47z m2381 49 c-15
-15 -177 -79 -215 -85 -20 -4 6 11 61 35 52 22 109 46 125 54 32 14 45 12 29
-4z m-5504 -60 c0 -5 -2 -10 -4 -10 -3 0 -8 5 -11 10 -3 6 -1 10 4 10 6 0 11
-4 11 -10z m3451 -215 c11 -64 18 -122 16 -129 -4 -12 -47 206 -47 238 0 43
12 2 31 -109z m1554 -31 c-10 -63 -20 -114 -23 -114 -6 0 6 129 21 210 19 108
20 28 2 -96z m963 124 c-2 -13 -7 -23 -13 -23 -5 0 -11 10 -13 23 -2 15 2 22
13 22 11 0 15 -7 13 -22z m662 -229 c0 -24 -23 -21 -28 4 -2 10 3 17 12 17 10
0 16 -9 16 -21z m-4722 -18 c4 -25 -13 -42 -34 -34 -17 6 -24 39 -11 52 18 18
42 8 45 -18z m3370 -208 c-4 -22 -22 -20 -26 1 -2 10 3 16 13 16 10 0 15 -7
13 -17z m1092 -133 c0 -5 -4 -10 -10 -10 -5 0 -10 5 -10 10 0 6 5 10 10 10 6
0 10 -4 10 -10z m-4640 -190 c0 -5 -4 -10 -10 -10 -5 0 -10 5 -10 10 0 6 5 10
10 10 6 0 10 -4 10 -10z m2170 -80 c0 -5 -4 -10 -10 -10 -5 0 -10 5 -10 10 0
6 5 10 10 10 6 0 10 -4 10 -10z m-1062 -99 c-10 -7 -18 -20 -18 -27 0 -20 -6
-18 -40 12 l-29 27 27 28 27 29 26 -28 c24 -26 25 -28 7 -41z m2119 -167 c8
-21 -13 -42 -28 -27 -13 13 -5 43 11 43 6 0 13 -7 17 -16z"/>
<path d="M4860 7889 c-191 -22 -515 -103 -635 -159 -11 -5 -58 -25 -105 -45
-217 -92 -473 -248 -652 -397 l-47 -39 70 -65 70 -66 52 50 c29 28 66 61 82
75 48 39 254 175 276 182 10 4 19 11 19 16 0 5 3 8 8 7 15 -3 192 89 184 97
-4 4 -2 5 4 2 6 -4 63 14 125 40 174 71 467 135 673 146 54 3 101 9 104 12 4
4 8 40 10 81 l4 74 -83 -1 c-46 -1 -118 -5 -159 -10z"/>
<path d="M7299 7033 l-34 -36 43 33 c23 18 42 35 42 37 0 12 -21 -2 -51 -34z"/>
<path d="M5705 6901 c3 -5 1 -12 -5 -16 -5 -3 -10 -1 -10 4 0 6 -5 11 -12 11
-6 0 -4 -8 6 -19 11 -12 24 -17 34 -13 9 3 11 7 5 9 -7 3 -9 11 -6 19 3 8 0
14 -7 14 -6 0 -9 -4 -5 -9z"/>
<path d="M5731 6889 c1 -8 -1 -22 -5 -31 -7 -16 -10 -16 -31 -2 -20 13 -23 13
-29 -2 -4 -9 -4 -19 -1 -22 3 -3 5 -1 5 5 0 5 7 10 15 10 11 0 12 -4 4 -14 -6
-7 -8 -13 -3 -13 5 -1 -2 -10 -15 -21 -13 -11 -22 -22 -19 -24 8 -9 38 6 38
19 0 6 14 24 30 39 31 30 38 51 19 62 -6 4 -9 1 -8 -6z"/>
<path d="M5643 6828 c4 -11 0 -18 -11 -21 -9 -3 -5 -4 11 -4 32 2 32 3 10 25
-16 16 -16 16 -10 0z"/>
<path d="M5619 6768 c0 -2 -3 -19 -6 -38 l-5 -35 22 20 c19 17 19 20 4 28 -13
8 -14 11 -3 18 10 6 11 9 2 9 -7 0 -13 -1 -14 -2z"/>
<path d="M4840 6603 c-54 -9 -97 -28 -153 -65 -143 -97 -198 -298 -122 -447
37 -74 107 -145 174 -178 49 -25 67 -28 151 -28 114 1 159 18 241 93 82 75
112 137 117 244 3 67 0 99 -14 137 -9 27 -21 48 -26 45 -4 -3 -5 2 -2 10 6 16
-116 146 -138 146 -7 0 -25 7 -41 15 -26 13 -129 36 -151 34 -6 -1 -22 -4 -36
-6z"/>
<path d="M3234 4599 c-18 -19 -19 -42 -22 -290 -2 -168 1 -269 7 -269 5 0 11
3 13 8 2 4 34 29 71 56 38 26 95 70 128 98 l60 50 -3 168 c-4 207 1 199 -139
200 -85 0 -98 -2 -115 -21z"/>
<path d="M3374 4133 c-183 -129 -166 -106 -162 -222 4 -128 9 -135 116 -139
92 -5 148 13 157 50 3 13 4 105 3 206 l-3 183 -111 -78z"/>
<path d="M4700 3110 c0 -38 1 -40 33 -40 49 0 76 10 82 32 11 31 -13 48 -66
48 l-49 0 0 -40z"/>
<path d="M5271 3103 c-8 -21 -16 -44 -18 -50 -4 -9 7 -13 37 -13 38 0 41 2 34
23 -7 24 -33 77 -37 77 -2 0 -9 -17 -16 -37z"/>
</g>
</svg>
